<svg xmlns="http://www.w3.org/2000/svg" viewBox="0 0 465.07 204.6"><defs><style>.cls-1{fill:#8ec044;}.cls-2{fill:#40b7af;}.cls-3{fill:#0a55a3;}.cls-4{fill:#1563ad;}</style></defs><g id="Capa_2" data-name="Capa 2"><g id="Capa_1-2" data-name="Capa 1"><path class="cls-1" d="M138.3,101.42a61.1,61.1,0,0,1-.28-22c3.34-18.46,12.43-34.14,23.73-48.7A203.39,203.39,0,0,1,191.32,0c23.86,21.36,44.52,44.76,52.77,76.36a64.81,64.81,0,0,1,0,25.57c-3.58-15.82-10.94-29.71-20.33-42.6a194.64,194.64,0,0,0-32.69-34.91C167.43,46,146.44,69.17,138.3,101.42Z"/><path class="cls-2" d="M243.94,102.14a61.1,61.1,0,0,1-.28-22C247,61.66,256.09,46,267.39,31.41A203.39,203.39,0,0,1,297,.72c23.86,21.37,44.52,44.76,52.77,76.37a64.76,64.76,0,0,1,0,25.56c-3.58-15.81-10.94-29.71-20.33-42.6a195,195,0,0,0-32.69-34.91C273.07,46.67,252.08,69.89,243.94,102.14Z"/><path class="cls-3" d="M350.63,102.57a60.88,60.88,0,0,1-.28-22c3.34-18.46,12.42-34.14,23.73-48.7A202.91,202.91,0,0,1,403.65,1.15c23.86,21.36,44.52,44.76,52.77,76.36a64.75,64.75,0,0,1,0,25.57c-3.57-15.82-10.94-29.71-20.33-42.6A194.58,194.58,0,0,0,403.4,25.57C379.76,47.1,358.77,70.32,350.63,102.57Z"/><path class="cls-4" d="M384.65,203.11H372.07c-.07-.71-.2-1.41-.2-2.11q0-18.1,0-36.21a16,16,0,0,0-.11-2.5c-.61-3.66-2-6.95-5.94-7.94-4.48-1.11-8.17.61-11.19,4-2.84,3.17-3.63,7-3.62,11.09q0,16,.05,32c0,.46-.05.92-.1,1.78-3.87,0-7.72.06-11.58,0-2.12,0-1.49-1.81-1.49-2.94,0-11.8,0-23.59.05-35.38,0-.47,0-.93,0-1.4,0-3.62-.87-6.92-4.38-8.64s-6.93-.91-9.93,1.35A15.7,15.7,0,0,0,317,169.05c-.08,11.23,0,22.46,0,33.94H304V144.63h12.83v4.18c10.67-6.82,20.76-8.19,29.59,1.46,4-2.05,7.82-4.62,12-6,9.85-3.18,20.38,1.06,24.48,9.57a18.34,18.34,0,0,1,1.86,7.46c.19,13.55.1,27.11.1,40.67A7,7,0,0,1,384.65,203.11Z"/><path class="cls-4" d="M221.9,177.05c.56,6.8,3,12.25,8.93,15.57,6.17,3.45,14.55.64,17.63-6.11,1.32-2.89,2.85-4,6-3.62a64.55,64.55,0,0,0,7.75.06c-1.32,10.15-10,18.8-20.62,20.85-15.13,2.89-28.79-6.3-32.35-22.14-2.57-11.4-.86-22.06,7.82-30.56,8.22-8,18.26-9.61,28.82-5.93s15.64,11.92,17,22.69c.26,2,.22,4.07.46,6.1.29,2.41-.58,3.2-3.08,3.17-12-.13-23.94-.07-35.91-.08Zm27.69-9.85c-1.25-9.47-8.16-13.92-16.08-13.08-5.71.61-12,8.54-11.17,13.08Z"/><path class="cls-4" d="M55.18,177h-41c-1.37,5.13,4,14.29,9.83,16.33a12.87,12.87,0,0,0,16-6.41c1.73-3.51,3.8-4.36,7.25-4a70.6,70.6,0,0,0,7.25.05c-1.32,3.15-2.12,6.09-3.67,8.56C45,200.91,36.21,205.2,25.38,204.17c-11.25-1.07-18.94-7.58-22.9-18.1-3.48-9.22-3.41-18.49.93-27.52a27.05,27.05,0,0,1,27.51-14.93c14.32,1.63,21.74,11.46,23.45,22.66C54.9,169.7,54.91,173.21,55.18,177Zm-13.85-9.71c-.57-8.17-6.82-13.64-14.78-13.22-6.56.34-12.72,6.76-12.56,13.22Z"/><path class="cls-1" d="M191.4,65.67C175.08,79.54,169.31,90.18,168,109c-3.92-5.25-6.63-10.72-7.36-17-1.49-13,3.55-23.94,10.63-34.22a112.76,112.76,0,0,1,20-21.74c2.29,2.09,4.67,4.1,6.86,6.31,8.82,8.87,16.54,18.53,21.14,30.36,4.67,12,3.92,23.57-3.38,34.44-.3.45-.7.85-1.62,2C215.41,89.42,203.5,77.52,191.4,65.67Z"/><path class="cls-2" d="M273.55,107.8c-5.72-7.39-8.56-15.63-7.28-24.9,2.11-15.41,10.73-27.36,21-38.31,2.54-2.7,5.35-5.13,8-7.75,1-1,1.84-1.32,3-.22,12.53,11.55,23.78,24,28.3,41.05,2.84,10.72.72,20.52-5.53,29.54a9.35,9.35,0,0,1-1.29,1.1,32.71,32.71,0,0,0-2.61-17.47c-3.42-8.16-12.82-20.07-20.54-25.7C284.45,76.87,272.93,88.91,273.55,107.8Z"/><path class="cls-3" d="M402.74,64.58C389.93,77,378.39,89,379.3,108.39a34.14,34.14,0,0,1-7-14.41c-2.06-10.22.4-19.7,5.16-28.67,6-11.29,14.45-20.62,24-29a10.64,10.64,0,0,1,1.16-.74C416,47.68,428,60.66,432.33,78.84c2.47,10.25.35,19.67-5.76,28.21a4.53,4.53,0,0,1-.56.6c-.05.06-.16.06-.25.08-.25-3.22-.17-6.5-.8-9.65-1.82-9.19-7-16.65-13-23.59C409.15,71.2,406.06,68.13,402.74,64.58Z"/><path class="cls-4" d="M143.46,143.42c14.48,0,26,10.58,27.47,25.07.71,6.88.17,13.48-2.58,19.86-4.78,11.07-15,16.36-26.61,15.94-11.35-.41-20.27-7-23.94-18-3.85-11.53-3-22.78,4.32-32.82C127.3,146.36,134.82,143.51,143.46,143.42Zm15,30.51A28.91,28.91,0,0,0,155,161.26c-5.29-9.29-16.65-10-22.48-1-5.08,7.79-5.08,16.32-1.43,24.7,2.38,5.47,6.39,9.08,12.9,8.71,6.26-.35,10.05-4.06,12.11-9.53C157.3,180.89,157.68,177.34,158.43,173.93Z"/><path class="cls-4" d="M111.3,180.42a26.34,26.34,0,0,1-7,16.76c-10.53,11.27-35.71,11.32-42.81-11.25-3.18-10.1-3.17-20,2.18-29.57A26,26,0,0,1,89,143.56c12,1.48,19.19,7.81,22.16,19.43a12.37,12.37,0,0,1,.13,1.77c-4.25,0-8.38.11-12.5-.12-.59,0-1.24-1.58-1.61-2.53-2.41-6.22-6-8.58-12.65-8-4.16.38-6.9,3-9,6.31-5,8-3.92,22,2.08,29.14,5.34,6.4,13.28,5.78,17.47-1.42A13.65,13.65,0,0,0,97,183.56c.41-2.73,1.82-3.36,4.35-3.19C104.53,180.57,107.77,180.42,111.3,180.42Z"/><path class="cls-4" d="M465.07,164.72c-4.22,0-8.11.11-12-.09-.7,0-1.62-1.26-1.94-2.12-2.51-6.7-6-9.3-12.84-8.25a13.47,13.47,0,0,0-7.07,3.82c-7.41,7.64-6.55,25.43,1.27,32.71,5.19,4.84,11.38,4.38,15.5-1.43a27.93,27.93,0,0,0,3-6.78c.49-1.37.89-2.14,2.63-2.05,3.77.19,7.55.05,11.32.05.18,12.17-10.62,23-22.58,23.82-18.3,1.19-26.9-12.1-28.76-25.7-1.06-7.78-.13-15.16,3.66-22.08,5-9.18,15.61-14.16,26-13C455,145,462.15,152.24,464.88,163A15.79,15.79,0,0,1,465.07,164.72Z"/><path class="cls-4" d="M196.52,154.63c0,4.7,0,8.94,0,13.19,0,7.24-.07,14.48,0,21.72,0,3.59,1.88,5,5.4,4.29,1.33-.27,2.68-.49,4.55-.83,0,3.17,0,6.09,0,9a1.63,1.63,0,0,1-1,1.1c-5.08,1.25-10.18,2.12-15.27,0-5.87-2.44-7-7.43-7-13,0-11.23.13-22.46.19-33.69,0-.45-.09-.9-.16-1.64h-8.44V144.62h8.43V127.85c4.21,0,8-.1,11.75.1.58,0,1.54,1.4,1.57,2.18.16,3.71.05,7.42.06,11.13,0,1,.12,2,.21,3.24h8v10.13Z"/><path class="cls-4" d="M269,144.48h12.12c.1,1.19.2,2.32.25,2.87,3.21-1.22,6.49-2.48,9.78-3.71a4.78,4.78,0,0,1,1.36-.22c5.56-.34,7.16,1.12,7.18,6.56,0,2.12,0,4.24,0,6.67a23.31,23.31,0,0,1-3.67-1c-6.57-2.92-12.4,2.87-13.58,7.76a20.83,20.83,0,0,0-.55,4.66c0,10.86,0,21.73,0,32.59,0,.72-.09,1.45-.15,2.35H269Z"/><path class="cls-4" d="M407,144.66V203H394.37V144.66Z"/><path class="cls-4" d="M400.56,121c4.57.1,7.78,3.26,7.74,7.64a7.79,7.79,0,1,1-15.58-.32A7.65,7.65,0,0,1,400.56,121Z"/></g></g></svg>