<?xml version="1.0" encoding="utf-8"?>
<!-- Generator: Adobe Illustrator 26.1.0, SVG Export Plug-In . SVG Version: 6.00 Build 0)  -->
<svg version="1.1" id="Capa_1" xmlns="http://www.w3.org/2000/svg" xmlns:xlink="http://www.w3.org/1999/xlink" x="0px" y="0px"
	 viewBox="0 0 551.8 163.4" style="enable-background:new 0 0 551.8 163.4;" xml:space="preserve">
<style type="text/css">
	.st0{fill:#004D99;}
	.st1{fill:#2BB8E4;}
	.st2{fill:none;stroke:#2BB8E4;stroke-width:13;stroke-linejoin:round;}
</style>
<path class="st0" d="M47.6,123.8c-6.8,9.1-15.4,11.6-25.5,10.7c-8.9-0.6-16.4-6.7-18.8-15.3c-2.8-9.2,0.3-19.1,7.4-24.4
	c5.3-4,11.5-5.6,17.9-6.1c3.6-0.4,7.2-0.4,10.9-0.2c4,0.3,4.7-1.5,4.4-4.9c-0.6-7.4-3.8-10.7-11.3-10.2C26,73.7,19.5,75,12.2,76
	L7.8,63.6c9.5-3.8,19.6-5.6,29.8-5.2c6.6,0.3,13.1,1.3,18.5,5.5c7.2,5.5,8.1,13.6,8.3,21.8c0.2,8.8,0,17.5,0.1,26.3
	c0,5.5,0.2,5.9,4.3,9.5l-4.1,12.8C57.4,133.7,51.4,131.3,47.6,123.8z M43.9,106.8c0.1-1.7,0.1-3.3-0.1-5c-0.2-0.9-1.4-2.4-2-2.4
	c-4.7,0.5-9.5,0.6-13.8,2.1c-4.6,1.6-6.1,7.5-4.4,13c1.3,4.1,4.9,6,10.1,5.3C40.7,118.9,43.9,114.8,43.9,106.8L43.9,106.8z"/>
<path class="st0" d="M179.5,124.1l9.7-10.8c7.1,4.7,14.5,7.7,23,6.4c3.6-0.6,6.5-2,7.2-5.9c0.7-4.1-1.5-6.7-5.1-8
	c-4.2-1.6-8.5-2.6-12.6-4.3s-8.2-3.2-11.4-5.8c-10.7-8.5-9.9-23.8,1.3-31.8c11.9-8.5,35.1-7,46.3,3.2c-2.3,3.5-4.6,7.1-6.6,10.1
	c-6-1.5-11.7-3.1-17.5-4.1c-2.2-0.4-4.5,0-6.4,1c-1.6,0.8-3.3,2.9-3.4,4.6s1.2,4.3,2.7,5c4.5,2.2,9.3,3.6,13.9,5.4
	c3.5,1.3,7,2.7,10.3,4.4c7.5,4.1,10.6,10.8,10.1,19.1s-5.3,14.2-12.5,18c-13.8,7.3-35.7,4.7-47.8-5.3
	C180.2,125,179.9,124.6,179.5,124.1z"/>
<path class="st0" d="M133.2,67l-6.6,10.4c-5.8-1.5-11.2-3-16.7-4.3c-1.4-0.2-2.8-0.2-4.1,0c-3.2,0.4-6.1,1.3-6.6,5.2
	s2.1,5.6,5.1,6.7c5.3,2,10.8,3.5,16.2,5.6c7.3,2.9,13.6,6.9,15.4,15.5s-0.6,15.7-7.2,21.3c-13.2,11.1-41.1,9.4-53.5-3.3l9.5-10.6
	c2.1,1.2,4.2,2.2,6.2,3.4c5.5,3.1,11.4,3.5,17.4,2.9c3.8-0.4,6.2-2.7,6.7-6.4c0.5-3.4-1.2-6-4.5-7.2c-4.9-1.8-10.1-3.2-14.9-5.2
	c-3.7-1.5-7.5-3.2-10.4-5.8c-10.4-9-8.8-24.8,2.8-32C100.4,55.3,121.7,57,133.2,67z"/>
<path class="st0" d="M328.6,75c0,11.9-0.1,23.2,0,34.4c0.1,8.4,4.5,11.2,12.4,7.9c0.6-0.3,1.2-0.6,2.1-1c1.2,2.2,2.4,4.4,3.5,6.5
	s2.1,4.2,3.2,6.2c-6.2,5.8-23.6,8.2-32.6,2.4c-5.3-3.3-8.7-9-9-15.2c-0.7-10.7-0.7-21.4-0.9-32.1c-0.1-2.9,0-5.8,0-9h-9.7V60.6h9.7
	V44.8l21.1-2.4v17.8H345c-0.7,4.7-1.3,9-2.2,13.3c-0.1,0.7-1.9,1.3-3,1.4C336.2,75.1,332.6,75,328.6,75z"/>
<path class="st0" d="M275.5,60.4h16.8c-0.8,5-1.5,9.6-2.3,14.4h-13.8c-0.3,1-0.5,1.9-0.6,2.9c0,10.6-0.1,21.2,0.2,31.7
	c0.3,8.5,4.6,10.9,12.5,7.7l2.1-0.9l7,13.2c-3.2,1.4-6.1,3.1-9.2,3.7c-4.8,0.9-9.6,1.3-14.5,1.1c-10-0.7-17.3-7.5-18.1-17.5
	c-0.9-10.7-0.7-21.4-1-32.1c-0.1-3,0-6.1,0-9.5H245V60.4h9.5V44.8l21-2.4L275.5,60.4z"/>
<path class="st0" d="M148.8,132.4V60.5h19.9v71.8L148.8,132.4z"/>
<path class="st0" d="M158.3,45.9c-6.6,0.1-12-5-12.3-11.6c-0.1-6.8,5.4-12,12.7-12s12.1,4.9,12,12S165.8,45.9,158.3,45.9z"/>
<path class="st1" d="M492.6,8.5"/>
<g>
	<path class="st1" d="M417,84.5c0,0.5-0.1,0.9-0.4,1.3c-0.3,0.4-0.7,0.7-1.3,0.9c-0.6,0.3-1.5,0.4-2.5,0.6c-1,0.1-2.3,0.2-3.9,0.2
		c-1.7,0-3-0.1-4-0.2c-1-0.1-1.8-0.3-2.5-0.6c-0.6-0.3-1-0.6-1.3-0.9c-0.3-0.4-0.4-0.8-0.4-1.3v-7.8c-3.7,4-7.5,7-11.3,9
		c-3.8,2-7.8,3-12,3c-4.6,0-8.5-0.8-11.6-2.3c-3.1-1.5-5.7-3.6-7.6-6.2c-1.9-2.6-3.3-5.6-4.1-9.1c-0.8-3.4-1.2-7.7-1.2-12.9V17.2
		c0-0.5,0.1-0.9,0.4-1.3c0.3-0.4,0.8-0.7,1.5-0.9c0.7-0.3,1.7-0.4,2.9-0.6c1.2-0.1,2.8-0.2,4.6-0.2c1.9,0,3.4,0.1,4.6,0.2
		c1.2,0.1,2.2,0.3,2.9,0.6c0.7,0.3,1.2,0.6,1.5,0.9c0.3,0.4,0.5,0.8,0.5,1.3v38c0,3.5,0.2,6.2,0.7,8.1s1.1,3.5,2.1,4.8
		c0.9,1.3,2.1,2.4,3.5,3.1s3.1,1.1,5,1.1c2.4,0,4.8-0.9,7.3-2.6c2.4-1.8,5-4.3,7.8-7.7V17.2c0-0.5,0.1-0.9,0.4-1.3
		c0.3-0.4,0.8-0.7,1.5-0.9c0.7-0.3,1.7-0.4,2.9-0.6c1.2-0.1,2.7-0.2,4.6-0.2c1.9,0,3.4,0.1,4.6,0.2c1.2,0.1,2.2,0.3,2.9,0.6
		c0.7,0.3,1.2,0.6,1.5,0.9c0.3,0.4,0.5,0.8,0.5,1.3V84.5z"/>
	<path class="st1" d="M503.8,49.9c0,6-0.6,11.4-1.9,16.2c-1.3,4.8-3.2,8.9-5.6,12.3c-2.5,3.4-5.5,6-9.2,7.8
		c-3.7,1.8-7.9,2.7-12.6,2.7c-2,0-3.8-0.2-5.4-0.6c-1.6-0.4-3.2-1-4.8-1.7s-3.1-1.7-4.6-2.9s-3.1-2.5-4.7-4.1v31.7
		c0,0.5-0.2,1-0.5,1.4c-0.3,0.4-0.8,0.7-1.5,1c-0.7,0.3-1.7,0.5-2.9,0.6c-1.2,0.2-2.7,0.2-4.6,0.2c-1.9,0-3.4-0.1-4.6-0.2
		c-1.2-0.2-2.2-0.4-2.9-0.6s-1.2-0.6-1.5-1c-0.3-0.4-0.5-0.9-0.5-1.4V17.2c0-0.5,0.1-0.9,0.4-1.3c0.3-0.4,0.7-0.7,1.3-0.9
		c0.6-0.3,1.5-0.4,2.5-0.6c1-0.1,2.3-0.2,3.9-0.2c1.5,0,2.8,0.1,3.8,0.2c1,0.1,1.9,0.3,2.5,0.6c0.6,0.3,1.1,0.6,1.3,0.9
		c0.3,0.4,0.4,0.8,0.4,1.3v7.9c2-2,3.9-3.8,5.8-5.3c1.9-1.5,3.8-2.8,5.8-3.8c2-1,4-1.8,6.1-2.3c2.1-0.5,4.3-0.8,6.7-0.8
		c4.9,0,9.1,1,12.6,2.9c3.5,1.9,6.3,4.6,8.5,8c2.2,3.4,3.8,7.3,4.8,11.8C503.3,40,503.8,44.8,503.8,49.9z M484,51.2
		c0-2.9-0.2-5.6-0.6-8.3c-0.4-2.6-1.2-5-2.2-7c-1-2.1-2.4-3.7-4.1-4.9c-1.7-1.2-3.8-1.8-6.3-1.8c-1.3,0-2.5,0.2-3.7,0.6
		c-1.2,0.4-2.5,1-3.8,1.8c-1.3,0.9-2.6,2-4,3.3c-1.4,1.4-2.8,3-4.3,5.1v22.2c2.7,3.4,5.2,6,7.6,7.8c2.4,1.8,4.9,2.8,7.5,2.8
		c2.5,0,4.6-0.6,6.3-1.9c1.7-1.3,3.2-2.9,4.3-4.9c1.1-2,1.9-4.3,2.5-6.9C483.7,56.3,484,53.8,484,51.2z"/>
</g>
<g>
	<g>
		<path class="st2" d="M398.2,118.2c31.1,24,66.5,26.8,94.1,11.7c10.8-5.9,31.8-22.7,37.4-66.6"/>
		<g>
			<polygon class="st1" points="531,31.2 547.2,77.4 529.2,65.7 510.2,75.5 			"/>
		</g>
	</g>
</g>
</svg>
